<?xml version="1.0" encoding="UTF-8" standalone="no"?>
<svg
   xmlns:dc="http://purl.org/dc/elements/1.1/"
   xmlns:cc="http://creativecommons.org/ns#"
   xmlns:rdf="http://www.w3.org/1999/02/22-rdf-syntax-ns#"
   xmlns:svg="http://www.w3.org/2000/svg"
   xmlns="http://www.w3.org/2000/svg"
   xmlns:sodipodi="http://sodipodi.sourceforge.net/DTD/sodipodi-0.dtd"
   xmlns:inkscape="http://www.inkscape.org/namespaces/inkscape"
   inkscape:export-ydpi="96"
   inkscape:export-xdpi="96"
   inkscape:export-filename="/home/remi/dev/ohp/artwork/logo-secondary-36.png"
   width="36"
   height="36"
   viewBox="0 0 36 36"
   version="1.1"
   id="svg846"
   inkscape:version="1.0 (4035a4fb49, 2020-05-01)"
   sodipodi:docname="logo2.svg">
  <defs
     id="defs840" />
  <sodipodi:namedview
     id="base"
     pagecolor="#ffffff"
     bordercolor="#666666"
     borderopacity="1.0"
     inkscape:pageopacity="0.0"
     inkscape:pageshadow="2"
     inkscape:zoom="11.060084"
     inkscape:cx="-6.4701378"
     inkscape:cy="22.398784"
     inkscape:document-units="px"
     inkscape:current-layer="layer1"
     inkscape:document-rotation="0"
     showgrid="true"
     units="px"
     showguides="false"
     inkscape:window-width="1920"
     inkscape:window-height="1016"
     inkscape:window-x="0"
     inkscape:window-y="0"
     inkscape:window-maximized="1"
     inkscape:snap-grids="false"
     inkscape:snap-to-guides="false"
     inkscape:snap-object-midpoints="true"
     inkscape:snap-others="true"
     inkscape:snap-center="false">
    <inkscape:grid
       type="xygrid"
       id="grid1409"
       spacingx="0.26458333"
       spacingy="0.26458333" />
  </sodipodi:namedview>
  <metadata
     id="metadata843">
    <rdf:RDF>
      <cc:Work
         rdf:about="">
        <dc:format>image/svg+xml</dc:format>
        <dc:type
           rdf:resource="http://purl.org/dc/dcmitype/StillImage" />
        <dc:title></dc:title>
      </cc:Work>
    </rdf:RDF>
  </metadata>
  <g
     inkscape:label="Calque 1"
     inkscape:groupmode="layer"
     id="layer1">
    <path
       id="path1633"
       style="color:#000000;font-style:normal;font-variant:normal;font-weight:normal;font-stretch:normal;font-size:medium;line-height:normal;font-family:sans-serif;font-variant-ligatures:normal;font-variant-position:normal;font-variant-caps:normal;font-variant-numeric:normal;font-variant-alternates:normal;font-variant-east-asian:normal;font-feature-settings:normal;font-variation-settings:normal;text-indent:0;text-align:start;text-decoration:none;text-decoration-line:none;text-decoration-style:solid;text-decoration-color:#000000;letter-spacing:normal;word-spacing:normal;text-transform:none;writing-mode:lr-tb;direction:ltr;text-orientation:mixed;dominant-baseline:auto;baseline-shift:baseline;text-anchor:start;white-space:normal;shape-padding:0;shape-margin:0;inline-size:0;clip-rule:nonzero;display:inline;overflow:visible;visibility:visible;opacity:1;isolation:auto;mix-blend-mode:normal;color-interpolation:sRGB;color-interpolation-filters:linearRGB;solid-color:#000000;solid-opacity:1;vector-effect:none;fill:#f9aa33;fill-opacity:1;fill-rule:nonzero;stroke:none;stroke-width:2.99861;stroke-linecap:butt;stroke-linejoin:miter;stroke-miterlimit:4;stroke-dasharray:none;stroke-dashoffset:0;stroke-opacity:1;color-rendering:auto;image-rendering:auto;shape-rendering:auto;text-rendering:auto;enable-background:accumulate;stop-color:#000000;stop-opacity:1"
       d="M 6.0000006,0 A 6.0000003,5.994471 0 0 0 0,5.9944713 6.0000003,5.994471 0 0 0 6.0000006,11.988943 6.0000003,5.994471 0 0 0 7.3046881,11.844545 l 5.0410159,9.854192 A 8.0000001,7.9926278 0 0 0 9.2578133,28.007371 8.0000001,7.9926278 0 0 0 17.257814,36 a 8.0000001,7.9926278 0 0 0 8,-7.992629 8.0000001,7.9926278 0 0 0 -8,-7.992627 8.0000001,7.9926278 0 0 0 -2.238282,0.318065 L 9.9804697,10.478617 A 6.0000003,5.994471 0 0 0 11.304689,8.7946231 l 6.714844,1.5981359 a 9.0000001,8.9917063 0 0 0 -0.01953,0.597106 9.0000001,8.9917063 0 0 0 9.000001,8.991706 A 9.0000001,8.9917063 0 0 0 36,10.989865 9.0000001,8.9917063 0 0 0 26.999999,1.9981571 9.0000001,8.9917063 0 0 0 18.716795,7.4755272 L 11.998048,5.8793431 A 6.0000003,5.994471 0 0 0 6.0000006,0 Z m -0.052735,2.9972357 a 3.0000003,2.997237 0 0 1 0.00195,0 3.0000003,2.997237 0 0 1 0.050781,0 A 3.0000003,2.997237 0 0 1 9.0000008,5.9944713 3.0000003,2.997237 0 0 1 6.0000006,8.991707 3.0000003,2.997237 0 0 1 3.0000003,5.9944713 3.0000003,2.997237 0 0 1 5.9472656,2.9972357 Z M 27.000002,4.9953928 a 6.0000001,5.9944736 0 0 1 6,5.9944722 6.0000001,5.9944736 0 0 1 -6,5.99447 6.0000001,5.9944736 0 0 1 -6,-5.99447 6.0000001,5.9944736 0 0 1 6,-5.9944722 z M 17.257814,23.011979 a 5.0000001,4.9953947 0 0 1 5,4.995392 5.0000001,4.9953947 0 0 1 -5,4.995394 5.0000001,4.9953947 0 0 1 -5.000001,-4.995394 5.0000001,4.9953947 0 0 1 5.000001,-4.995392 z" />
  </g>
</svg>
